2.2Hzlow3min_grf.mot
version=1
nRows=12
nColumns 19
inDegrees=yes
endheader
time	1_ground_force_vx	1_ground_force_vy	1_ground_force_vz	1_ground_force_px	1_ground_force_py	1_ground_force_pz	1_ground_torque_x	1_ground_torque_y	1_ground_torque_z	2_ground_force_vx	2_ground_force_vy	2_ground_force_vz	2_ground_force_px	2_ground_force_py	2_ground_force_pz	2_ground_torque_x	2_ground_torque_y	2_ground_torque_z
            2.502500	           -0.045552	            0.900533	            0.187402	           -0.233013	            0.005581	           -0.255695	            0.047814	            0.018643	           -0.039622	           -0.001370	            0.368631	           -0.092542	           -0.232311	            0.006130	           -0.833667	           -0.150011	           -0.066980	            0.075229
            2.503000	            0.229508	           -0.360880	            0.089597	           -0.233013	            0.005581	           -0.255695	            0.090219	           -0.073821	            0.009246	            0.048159	           -0.367960	           -0.048262	           -0.232311	            0.006130	           -0.833667	           -0.131013	           -0.123696	            0.093868
            2.503500	            0.228952	            1.442170	            0.005615	           -0.233013	            0.005581	           -0.255695	            0.167921	           -0.082811	           -0.047444	           -0.045500	           -0.368633	            0.045634	           -0.232311	            0.006130	           -0.833667	           -0.056024	           -0.085479	            0.056271
            2.504000	            0.274683	            0.180909	           -0.137477	           -0.233013	            0.005581	           -0.255695	            0.174700	           -0.101441	           -0.007945	           -0.001411	            0.368966	           -0.186398	           -0.232311	            0.006130	           -0.833667	           -0.150215	           -0.019448	           -0.000004
            2.504500	            0.228514	            0.722090	           -0.226757	           -0.233013	            0.005581	           -0.255695	            0.065615	           -0.046026	           -0.009410	           -0.235682	            0.368288	           -0.233227	           -0.232311	            0.006130	           -0.833667	           -0.131437	           -0.019313	           -0.018862
            2.505000	           -0.183600	            0.000358	           -0.091257	           -0.233013	            0.005581	           -0.255695	            0.078749	           -0.018156	           -0.102083	           -0.091870	           -0.551444	           -0.377356	           -0.232311	            0.006130	           -0.833667	           -0.131557	            0.018363	            0.018974
            2.505500	            0.091392	            0.360942	           -0.090393	           -0.233013	            0.005581	           -0.255695	            0.097322	           -0.036513	           -0.090492	           -0.328073	           -0.000180	           -0.281429	           -0.232311	            0.006130	           -0.833667	           -0.150180	           -0.028901	           -0.000037
            2.506000	           -0.092126	            0.541369	           -0.135021	           -0.233013	            0.005581	           -0.255695	            0.249409	           -0.018244	           -0.061020	           -0.140529	           -0.000675	            0.046988	           -0.232311	            0.006130	           -0.833667	           -0.206452	           -0.048144	            0.037620
            2.506500	            0.182949	           -0.179444	           -0.184652	           -0.233013	            0.005581	           -0.255695	            0.176640	           -0.082595	           -0.105756	            0.094200	           -0.182471	           -0.376122	           -0.232311	            0.006130	           -0.833667	           -0.112440	           -0.066845	            0.075213
            2.507000	            0.228985	            1.261904	            0.004842	           -0.233013	            0.005581	           -0.255695	            0.111771	           -0.101389	           -0.028580	            0.093659	            0.000673	           -0.093896	           -0.232311	            0.006130	           -0.833667	           -0.150122	           -0.038555	            0.056480
            2.507500	           -0.091246	           -0.541405	            0.135476	           -0.233013	            0.005581	           -0.255695	            0.125753	           -0.092205	           -0.060992	           -0.232900	           -0.369310	            0.045714	           -0.232311	            0.006130	           -0.833667	           -0.225304	           -0.038490	           -0.037739
            2.508000	            0.045469	            0.180864	           -0.136909	           -0.233013	            0.005581	           -0.255695	            0.155851	           -0.073740	           -0.036351	            0.282285	           -0.366110	           -0.329930	           -0.232311	            0.006130	           -0.833667	           -0.169076	           -0.000543	           -0.018778
